<svg width="380" height="142" viewBox="0 0 380 142" xmlns="http://www.w3.org/2000/svg"><title>B4268F23-B5D7-42BD-91E0-7DDD8D80AA28</title><g fill-rule="nonzero" fill="none"><path fill="#E42313" d="M140.435 47.116H93.673V.25H46.862v46.865H.1V94.03h46.762v46.865h46.811V94.031h46.762z"/><g fill="#646363"><path d="M257.339 21.727c7.81 0 13.567 5.57 13.567 15.253 0 9.684-5.807 15.254-13.567 15.254-7.81 0-13.568-5.57-13.568-15.254-.05-9.684 5.757-15.253 13.568-15.253m0 38.033c12.466 0 22.079-9.383 22.079-22.78 0-13.648-9.363-22.78-22.08-22.78-12.466 0-22.078 9.383-22.078 22.78-.05 13.648 9.312 22.78 22.079 22.78M308.206 52.184c-7.81 0-13.018-5.57-13.018-15.254s5.257-15.254 13.018-15.254c7.81 0 13.567 5.57 13.567 15.254 0 9.734-5.807 15.254-13.567 15.254zm13.417 5.419c0 .853.45 1.254 1.302 1.254h5.507c.851 0 1.252-.451 1.252-1.254V1.505c0-.853-.4-1.304-1.252-1.304h-5.657c-.851 0-1.302.451-1.302 1.304v19.72c-2.804-4.215-7.26-7.075-14.018-7.075-12.166 0-20.828 9.283-20.828 22.93 0 13.548 8.511 22.63 20.527 22.63 7.01 0 11.615-3.01 14.47-7.476v5.369zM329.033 81.136h-6.509c-.85 0-1.251.451-1.251 1.304v6.523c0 .853.4 1.255 1.251 1.255h6.509c.851 0 1.252-.402 1.252-1.255V82.44c0-.903-.4-1.304-1.252-1.304M328.582 97.042h-5.657c-.851 0-1.302.401-1.302 1.304v41.296c0 .853.45 1.304 1.302 1.304h5.657c.851 0 1.252-.451 1.252-1.304V98.346c.05-.853-.4-1.304-1.252-1.304M219.79 18.616c0 6.422-4.557 10.236-12.768 10.236h-11.465V8.329h11.465c8.211 0 12.767 3.864 12.767 10.287m-31.291 40.291h5.808c.85 0 1.301-.451 1.301-1.304V36.679h9.613l15.12 21.225c.45.552 1.001 1.003 2.003 1.003h6.809c1.251 0 1.401-1.154.85-1.856l-15.72-21.777c9.062-2.007 14.169-8.279 14.169-16.658C228.45 6.07 218.387.25 207.773.25h-19.275c-.851 0-1.252.451-1.252 1.304v56.098c0 .803.4 1.254 1.252 1.254M307.855 97.042h-5.657c-.851 0-1.252.401-1.252 1.304v23.634c0 7.125-4.105 12.092-11.165 12.092-6.508 0-10.764-4.265-10.764-12.092V98.346c0-.853-.4-1.304-1.252-1.304h-5.657c-.851 0-1.252.401-1.252 1.304v25.038c0 10.839 7.21 18.365 17.574 18.365 6.108 0 10.363-2.559 12.716-6.724v4.567c0 .853.45 1.304 1.252 1.304h5.507c.851 0 1.252-.451 1.252-1.304V98.346c-.05-.853-.45-1.304-1.302-1.304M347.507 33.568c1.102-8.48 6.309-11.992 11.866-11.992 6.258 0 11.064 4.416 11.765 11.942h-23.63v.05zM359.373 14.2c-11.165 0-20.227 9.132-20.227 22.78 0 13.648 9.062 22.78 21.378 22.78 7.51 0 14.019-3.412 17.123-7.827.7-.853.25-1.405-.15-1.857l-3.255-3.261c-.55-.552-1.151-.552-1.852 0-1.252 1.154-4.806 5.57-11.715 5.57-5.658 0-11.816-3.413-13.068-11.943h30.39c1.302 0 1.402-1.003 1.402-2.86.05-14.55-8.01-23.382-20.026-23.382zM359.673 115.457c-5.357-1.556-10.213-3.011-10.213-6.975 0-2.96 2.854-4.867 8.36-4.867 5.258 0 8.812 1.856 11.065 3.11.851.452 1.552 0 1.853-.551l2.103-4.265c.45-1.004 0-1.556-.551-1.857-3.955-2.157-9.613-3.863-14.87-3.863-9.362 0-16.12 4.716-16.12 12.845 0 8.68 7.91 11.24 15.119 13.397 5.808 1.706 9.763 2.86 9.763 6.573 0 3.01-2.403 5.42-9.062 5.42-5.507 0-8.762-1.707-13.568-4.266-.851-.451-1.402-.3-1.852.552l-2.103 4.265c-.3.552-.3 1.154.25 1.706 1.402 1.405 9.062 5.118 17.824 5.118 10.063 0 16.722-4.967 16.722-13.246 0-8.982-7.81-11.14-14.72-13.096M207.723 108.18l22.63-24.034c.55-.702.45-1.856-.851-1.856h-6.809c-1.001 0-1.702.451-2.103 1.003l-25.033 26.644V83.594c0-.853-.45-1.304-1.301-1.304h-5.808c-.851 0-1.252.451-1.252 1.304v56.098c0 .853.45 1.304 1.252 1.304h5.808c.85 0 1.301-.451 1.301-1.304v-19.017l6.208-6.573 19.827 25.89a2.658 2.658 0 0 0 2.102 1.004h6.81c1.25 0 1.401-1.154.85-1.856l-23.63-30.96zM246.374 123.836c0-11.54 6.208-18.666 15.72-18.666.852 0 1.253-.451 1.253-1.304v-6.423c0-.853-.451-1.304-1.252-1.304-7.21 0-13.167 4.164-15.871 11.089v-8.882c0-.853-.45-1.304-1.252-1.304h-5.507c-.851 0-1.252.401-1.252 1.304v41.296c0 .853.401 1.304 1.252 1.304h5.658c.85 0 1.301-.451 1.301-1.304v-15.806h-.05z"/></g></g></svg>